<?xml version="1.0" encoding="utf-8"?>
<!-- Uploaded to: SVG Repo, www.svgrepo.com, Generator: SVG Repo Mixer Tools -->
<svg fill="#000000" version="1.1" id="Layer_1" xmlns="http://www.w3.org/2000/svg" xmlns:xlink="http://www.w3.org/1999/xlink" 
	 width="800px" height="800px" viewBox="0 0 210 256" enable-background="new 0 0 210 256" xml:space="preserve">
<path d="M174.55,144.5L174.55,144.5c-1.4-4-5-6.5-9.2-6.5H159V23c0-11.708-9.292-21-21-21H25C12.57,2,2,12.57,2,25v183
	c0,11.9,10.95,22,22.75,22l114.213,0c1.207,0,2.27,0.984,2.18,2.188c-0.095,1.266-1.153,1.812-2.393,1.812h-45.5L128,254h80
	L174.55,144.5z M82.05,220.2c-3.199,0-5.599-2.399-5.6-5.598c-0.001-3.045,2.557-5.602,5.602-5.602
	c3.199,0.001,5.598,2.401,5.598,5.6C87.55,217.8,85.25,220.2,82.05,220.2z M144,138h-19.65c-5.3,0-9.8,4.7-9.8,10l0,0
	c0,5.3,4.5,10,9.8,10h19.8v42H18V31h126V138z M54.902,147.065h50.296v10.201H54.902V147.065z M59.149,132.534
	c8.827-9.659,14.489-15.239,14.489-28.062c0-2.623-0.125-2.998-0.416-5.496h-7.286v-9.743h5.579c0,0-6.787-12.824-6.787-14.323
	c0-4.205,3.414-7.661,7.661-7.661c2.165,0,4.122,0.916,5.538,2.373v-9.41h-4.622v-4.372h4.622v-4.996h4.372v4.996h4.622v4.372
	h-4.622v9.368c1.416-1.457,3.331-2.332,5.496-2.332c4.205,0,7.661,3.414,7.661,7.661c0,1.541-6.62,14.323-6.62,14.323h5.288v9.743
	h-7.12c-0.25,2.498-0.416,2.873-0.416,5.496c0,12.824,5.579,18.278,14.364,27.938l-3.331,11.283H62.397L59.149,132.534z"/>
</svg>